# xmcd CD database file
#
# Track frame offsets:
#	150
#	12549
#	25557
#	40683
#	54092
#	68342
#	83483
#	98690
#	112980
#	125743
#	140669
#	156532
#	172846
#	187351
#
# Disc length: 2620 seconds
#
# Revision: 0
# Processed by: cddbd v1.5.1PL2 Copyright (c) Steve Scherf et al.
# Submitted via: CDex 1.51
#
DISCID=ad0a3a0e
DTITLE=Art Tatum - Complete Capitol Recordings CD2
DYEAR=1900
DGENRE=Jazz
TTITLE0=Makin' Whoopee
TTITLE1=Blue Skies
TTITLE2=It's The Talk Of The Town
TTITLE3=Dancing In The Dark
TTITLE4=Tenderly
TTITLE5=September Song
TTITLE6=Melody in F, Opus 3, No. 1
TTITLE7=Tea For Two
TTITLE8=Out Of Nowhere
TTITLE9=Just One Of Those Things
TTITLE10=Indiana
TTITLE11=Would You Like To Take A Walk
TTITLE12=Lover
TTITLE13=Promotional Interview
EXTD=
EXTT0=
EXTT1=
EXTT2=
EXTT3=
EXTT4=
EXTT5=
EXTT6=
EXTT7=
EXTT8=
EXTT9=
EXTT10=
EXTT11=
EXTT12=
EXTT13=
PLAYORDER=
